<mxfile host="app.diagrams.net" modified="2023-11-04T17:44:39.264Z" agent="Mozilla/5.0 (Windows NT 10.0; Win64; x64) AppleWebKit/537.36 (KHTML, like Gecko) Chrome/118.0.0.0 Safari/537.36" etag="jzRP3pmH8ajTfGzVf0Wz" version="22.0.8" type="device">
  <diagram name="Page-1" id="lbvEOw-CsN-eb34fIVOR">
    <mxGraphModel dx="1544" dy="773" grid="1" gridSize="10" guides="1" tooltips="1" connect="1" arrows="1" fold="1" page="1" pageScale="1" pageWidth="1169" pageHeight="827" math="0" shadow="0">
      <root>
        <mxCell id="0" />
        <mxCell id="1" parent="0" />
        <mxCell id="jW83JBykvSTa1SDl8wJ5-1" value="Web CalcuLABOR" style="rounded=0;whiteSpace=wrap;html=1;fontSize=16;" parent="1" vertex="1">
          <mxGeometry width="1160" height="80" as="geometry" />
        </mxCell>
        <mxCell id="jW83JBykvSTa1SDl8wJ5-2" value="" style="rounded=0;whiteSpace=wrap;html=1;fontSize=16;" parent="1" vertex="1">
          <mxGeometry y="80" width="1160" height="670" as="geometry" />
        </mxCell>
        <mxCell id="jW83JBykvSTa1SDl8wJ5-3" value="Footer" style="rounded=0;whiteSpace=wrap;html=1;fontSize=16;" parent="1" vertex="1">
          <mxGeometry y="750" width="1160" height="70" as="geometry" />
        </mxCell>
        <mxCell id="jW83JBykvSTa1SDl8wJ5-4" value="" style="rounded=0;whiteSpace=wrap;html=1;fontSize=16;fillColor=#647687;fontColor=#ffffff;strokeColor=#314354;" parent="1" vertex="1">
          <mxGeometry x="380" y="130" width="400" height="580" as="geometry" />
        </mxCell>
        <mxCell id="jW83JBykvSTa1SDl8wJ5-5" value="32.4vw" style="rounded=1;whiteSpace=wrap;html=1;fontSize=16;" parent="1" vertex="1">
          <mxGeometry x="390" y="170" width="380" height="120" as="geometry" />
        </mxCell>
        <mxCell id="jW83JBykvSTa1SDl8wJ5-6" value="6.3vw" style="rounded=1;whiteSpace=wrap;html=1;fontSize=16;" parent="1" vertex="1">
          <mxGeometry x="400" y="140" width="70" height="20" as="geometry" />
        </mxCell>
        <mxCell id="jW83JBykvSTa1SDl8wJ5-38" value="" style="rounded=0;whiteSpace=wrap;html=1;fontSize=16;fillColor=#60a917;fontColor=#ffffff;strokeColor=#2D7600;" parent="1" vertex="1">
          <mxGeometry x="390" y="300" width="380" height="400" as="geometry" />
        </mxCell>
        <mxCell id="jW83JBykvSTa1SDl8wJ5-7" value="7.2" style="rounded=1;whiteSpace=wrap;html=1;fontSize=16;fillColor=#e51400;fontColor=#ffffff;strokeColor=#B20000;" parent="1" vertex="1">
          <mxGeometry x="510" y="310" width="80" height="60" as="geometry" />
        </mxCell>
        <mxCell id="jW83JBykvSTa1SDl8wJ5-8" value="9vw" style="rounded=1;whiteSpace=wrap;html=1;fontSize=16;fillColor=#e51400;fontColor=#ffffff;strokeColor=#B20000;" parent="1" vertex="1">
          <mxGeometry x="400" y="310" width="100" height="60" as="geometry" />
        </mxCell>
        <mxCell id="jW83JBykvSTa1SDl8wJ5-9" value="6.4" style="whiteSpace=wrap;html=1;aspect=fixed;fontSize=16;fillColor=#bac8d3;strokeColor=#23445d;" parent="1" vertex="1">
          <mxGeometry x="410" y="390" width="70" height="70" as="geometry" />
        </mxCell>
        <mxCell id="jW83JBykvSTa1SDl8wJ5-10" value="6.4" style="whiteSpace=wrap;html=1;aspect=fixed;fontSize=16;fillColor=#bac8d3;strokeColor=#23445d;" parent="1" vertex="1">
          <mxGeometry x="500" y="390" width="70" height="70" as="geometry" />
        </mxCell>
        <mxCell id="jW83JBykvSTa1SDl8wJ5-11" value="6.4vw" style="whiteSpace=wrap;html=1;aspect=fixed;fontSize=16;fillColor=#bac8d3;strokeColor=#23445d;" parent="1" vertex="1">
          <mxGeometry x="585" y="390" width="70" height="70" as="geometry" />
        </mxCell>
        <mxCell id="jW83JBykvSTa1SDl8wJ5-12" value="6.4vw" style="whiteSpace=wrap;html=1;aspect=fixed;fontSize=16;fillColor=#fa6800;fontColor=#000000;strokeColor=#C73500;" parent="1" vertex="1">
          <mxGeometry x="680" y="390" width="70" height="70" as="geometry" />
        </mxCell>
        <mxCell id="jW83JBykvSTa1SDl8wJ5-18" value="6.4" style="whiteSpace=wrap;html=1;aspect=fixed;fontSize=16;fillColor=#bac8d3;strokeColor=#23445d;" parent="1" vertex="1">
          <mxGeometry x="410" y="470" width="70" height="70" as="geometry" />
        </mxCell>
        <mxCell id="jW83JBykvSTa1SDl8wJ5-19" value="6.4" style="whiteSpace=wrap;html=1;aspect=fixed;fontSize=16;fillColor=#bac8d3;strokeColor=#23445d;" parent="1" vertex="1">
          <mxGeometry x="500" y="470" width="70" height="70" as="geometry" />
        </mxCell>
        <mxCell id="jW83JBykvSTa1SDl8wJ5-20" value="6.4vw" style="whiteSpace=wrap;html=1;aspect=fixed;fontSize=16;fillColor=#bac8d3;strokeColor=#23445d;" parent="1" vertex="1">
          <mxGeometry x="585" y="470" width="70" height="70" as="geometry" />
        </mxCell>
        <mxCell id="jW83JBykvSTa1SDl8wJ5-21" value="6.4vw" style="whiteSpace=wrap;html=1;aspect=fixed;fontSize=16;fillColor=#fa6800;fontColor=#000000;strokeColor=#C73500;" parent="1" vertex="1">
          <mxGeometry x="680" y="470" width="70" height="70" as="geometry" />
        </mxCell>
        <mxCell id="jW83JBykvSTa1SDl8wJ5-22" value="6.4" style="whiteSpace=wrap;html=1;aspect=fixed;fontSize=16;fillColor=#bac8d3;strokeColor=#23445d;" parent="1" vertex="1">
          <mxGeometry x="410" y="550" width="70" height="70" as="geometry" />
        </mxCell>
        <mxCell id="jW83JBykvSTa1SDl8wJ5-23" value="6.4" style="whiteSpace=wrap;html=1;aspect=fixed;fontSize=16;fillColor=#bac8d3;strokeColor=#23445d;" parent="1" vertex="1">
          <mxGeometry x="500" y="550" width="70" height="70" as="geometry" />
        </mxCell>
        <mxCell id="jW83JBykvSTa1SDl8wJ5-24" value="6.4" style="whiteSpace=wrap;html=1;aspect=fixed;fontSize=16;fillColor=#bac8d3;strokeColor=#23445d;" parent="1" vertex="1">
          <mxGeometry x="585" y="550" width="70" height="70" as="geometry" />
        </mxCell>
        <mxCell id="jW83JBykvSTa1SDl8wJ5-25" value="6.4vw" style="whiteSpace=wrap;html=1;aspect=fixed;fontSize=16;fillColor=#fa6800;fontColor=#000000;strokeColor=#C73500;" parent="1" vertex="1">
          <mxGeometry x="680" y="550" width="70" height="70" as="geometry" />
        </mxCell>
        <mxCell id="jW83JBykvSTa1SDl8wJ5-27" value="10.8vw" style="rounded=1;whiteSpace=wrap;html=1;fontSize=16;fillColor=#b1ddf0;strokeColor=#10739e;" parent="1" vertex="1">
          <mxGeometry x="640" y="630" width="120" height="60" as="geometry" />
        </mxCell>
        <mxCell id="jW83JBykvSTa1SDl8wJ5-28" value="8.1" style="rounded=1;whiteSpace=wrap;html=1;fontSize=16;fillColor=#bac8d3;strokeColor=#23445d;" parent="1" vertex="1">
          <mxGeometry x="540" y="630" width="90" height="60" as="geometry" />
        </mxCell>
        <mxCell id="jW83JBykvSTa1SDl8wJ5-29" value="10.8vw" style="rounded=1;whiteSpace=wrap;html=1;fontSize=16;fillColor=#bac8d3;strokeColor=#23445d;" parent="1" vertex="1">
          <mxGeometry x="410" y="630" width="120" height="60" as="geometry" />
        </mxCell>
        <mxCell id="jW83JBykvSTa1SDl8wJ5-30" value="6.4vw" style="whiteSpace=wrap;html=1;aspect=fixed;fontSize=16;fillColor=#fa6800;fontColor=#000000;strokeColor=#C73500;" parent="1" vertex="1">
          <mxGeometry x="680" y="305" width="70" height="70" as="geometry" />
        </mxCell>
        <mxCell id="jW83JBykvSTa1SDl8wJ5-32" value="6.4vw" style="whiteSpace=wrap;html=1;aspect=fixed;fontSize=16;fillColor=#fa6800;fontColor=#000000;strokeColor=#C73500;" parent="1" vertex="1">
          <mxGeometry x="600" y="305" width="70" height="70" as="geometry" />
        </mxCell>
        <mxCell id="jW83JBykvSTa1SDl8wJ5-36" value="" style="endArrow=none;dashed=1;html=1;dashPattern=1 3;strokeWidth=2;rounded=0;fontSize=12;startSize=8;endSize=8;curved=1;" parent="1" edge="1">
          <mxGeometry width="50" height="50" relative="1" as="geometry">
            <mxPoint x="670.2" y="620" as="sourcePoint" />
            <mxPoint x="670.2" y="380" as="targetPoint" />
          </mxGeometry>
        </mxCell>
        <mxCell id="jW83JBykvSTa1SDl8wJ5-39" value="" style="endArrow=none;dashed=1;html=1;dashPattern=1 3;strokeWidth=2;rounded=0;fontSize=12;startSize=8;endSize=8;curved=1;entryX=0.996;entryY=0.202;entryDx=0;entryDy=0;entryPerimeter=0;exitX=0.008;exitY=0.202;exitDx=0;exitDy=0;exitPerimeter=0;" parent="1" source="jW83JBykvSTa1SDl8wJ5-38" target="jW83JBykvSTa1SDl8wJ5-38" edge="1">
          <mxGeometry width="50" height="50" relative="1" as="geometry">
            <mxPoint x="800" y="490" as="sourcePoint" />
            <mxPoint x="850" y="440" as="targetPoint" />
          </mxGeometry>
        </mxCell>
        <mxCell id="jW83JBykvSTa1SDl8wJ5-40" value="" style="endArrow=none;dashed=1;html=1;dashPattern=1 3;strokeWidth=2;rounded=0;fontSize=12;startSize=8;endSize=8;curved=1;entryX=0.999;entryY=0.816;entryDx=0;entryDy=0;entryPerimeter=0;exitX=0.002;exitY=0.818;exitDx=0;exitDy=0;exitPerimeter=0;" parent="1" source="jW83JBykvSTa1SDl8wJ5-38" target="jW83JBykvSTa1SDl8wJ5-38" edge="1">
          <mxGeometry width="50" height="50" relative="1" as="geometry">
            <mxPoint x="403" y="391" as="sourcePoint" />
            <mxPoint x="778" y="391" as="targetPoint" />
          </mxGeometry>
        </mxCell>
        <mxCell id="jW83JBykvSTa1SDl8wJ5-41" value="" style="endArrow=none;dashed=1;html=1;dashPattern=1 3;strokeWidth=2;rounded=0;fontSize=12;startSize=8;endSize=8;curved=1;entryX=0.536;entryY=-0.006;entryDx=0;entryDy=0;entryPerimeter=0;" parent="1" target="jW83JBykvSTa1SDl8wJ5-38" edge="1">
          <mxGeometry width="50" height="50" relative="1" as="geometry">
            <mxPoint x="594" y="380" as="sourcePoint" />
            <mxPoint x="850" y="440" as="targetPoint" />
          </mxGeometry>
        </mxCell>
        <mxCell id="6C3qS6rdKOueWO12V13t-1" value="36vw" style="text;html=1;strokeColor=none;fillColor=none;align=center;verticalAlign=middle;whiteSpace=wrap;rounded=0;fontSize=16;" vertex="1" parent="1">
          <mxGeometry x="660" y="120" width="60" height="30" as="geometry" />
        </mxCell>
        <mxCell id="6C3qS6rdKOueWO12V13t-2" value="32.4vw" style="text;html=1;strokeColor=none;fillColor=none;align=center;verticalAlign=middle;whiteSpace=wrap;rounded=0;fontSize=16;" vertex="1" parent="1">
          <mxGeometry x="380" y="281" width="60" height="30" as="geometry" />
        </mxCell>
      </root>
    </mxGraphModel>
  </diagram>
</mxfile>
